<?xml version="1.0" encoding="UTF-8"?>
<svg version="1.1" xmlns="http://www.w3.org/2000/svg" width="499" height="500">
<path d="M0 0 C3.37464437 0.008512 6.74759189 -0.02034781 10.12207031 -0.05200195 C22.65353752 -0.09314684 34.01955465 0.73229865 46.01269531 4.44604492 C46.893125 4.71247803 47.77355469 4.97891113 48.68066406 5.25341797 C50.76617113 5.93509522 52.79142344 6.68651292 54.82519531 7.50854492 C55.55109863 7.79745605 56.27700195 8.08636719 57.02490234 8.3840332 C71.07099327 14.18704291 84.26464108 21.80883402 96.01269531 31.44604492 C96.91890625 32.17436523 97.82511719 32.90268555 98.75878906 33.65307617 C101.5282701 35.8961594 104.27018444 38.17010229 107.01269531 40.44604492 C108.13042778 41.35322856 109.24894524 42.25944568 110.36816406 43.16479492 C111.47897905 44.07087588 112.58965907 44.97712234 113.70019531 45.88354492 C114.7146875 46.70725586 115.72917969 47.5309668 116.77441406 48.37963867 C117.88236328 49.40250977 117.88236328 49.40250977 119.01269531 50.44604492 C119.01269531 51.10604492 119.01269531 51.76604492 119.01269531 52.44604492 C120.00269531 52.77604492 120.99269531 53.10604492 122.01269531 53.44604492 C122.01269531 54.10604492 122.01269531 54.76604492 122.01269531 55.44604492 C122.54193604 55.64931396 123.07117676 55.85258301 123.61645508 56.06201172 C127.06121941 58.05165706 129.5769955 60.76530343 132.35253906 63.59057617 C132.95651016 64.19737717 133.56048126 64.80417816 134.18275452 65.42936707 C136.10999067 67.36777199 138.03016698 69.31300286 139.95019531 71.25854492 C141.23814332 72.55653099 142.52655002 73.85406209 143.81542969 75.15112305 C146.19255801 77.54455132 148.5669661 79.94060806 150.93823242 82.33984375 C153.61977679 85.05192197 156.31326341 87.75175643 159.01269531 90.44604492 C162.55436198 93.98771159 166.09602865 97.52937826 169.63769531 101.07104492 C170.21173096 101.64491943 170.7857666 102.21879395 171.37719727 102.81005859 C172.85451643 104.28781882 174.33018939 105.7672243 175.80566406 107.24682617 C177.29283392 108.72873171 178.80000636 110.19079862 180.32519531 111.63354492 C182.01269531 113.44604492 182.01269531 113.44604492 182.01269531 115.44604492 C182.59792969 115.69483398 183.18316406 115.94362305 183.78613281 116.19995117 C186.3243523 117.62046348 187.76466658 119.16809023 189.63769531 121.38354492 C190.22808594 122.07319336 190.81847656 122.7628418 191.42675781 123.47338867 C193.01269531 125.44604492 193.01269531 125.44604492 195.01269531 128.44604492 C194.63769531 131.13354492 194.63769531 131.13354492 194.01269531 133.44604492 C193.38290771 133.47110107 192.75312012 133.49615723 192.10424805 133.52197266 C189.2194019 133.6388292 186.33481137 133.76114513 183.45019531 133.88354492 C182.45955078 133.92286133 181.46890625 133.96217773 180.44824219 134.00268555 C170.49121044 133.87032478 170.49121044 133.87032478 162.20019531 138.19604492 C158.86428332 143.15225702 157.40889241 146.21477558 158.41503906 152.32104492 C159.88511452 157.54797989 162.14936178 161.32442668 166.82910156 164.14135742 C172.52384543 166.37815118 178.79976854 165.94170184 184.82519531 166.00854492 C187.26934252 166.04286212 189.71339275 166.08539791 192.15722656 166.13745117 C193.23335205 166.14977783 194.30947754 166.16210449 195.41821289 166.17480469 C198.01269531 166.44604492 198.01269531 166.44604492 200.01269531 168.44604492 C200.23077732 176.87854915 197.71883669 186.49675462 195.01269531 194.44604492 C191.87271863 196.01603326 188.5209317 195.57549037 185.07470703 195.55957031 C184.25511505 195.55971634 183.43552307 195.55986237 182.59109497 195.56001282 C179.87483091 195.55931466 177.15863493 195.5515268 174.44238281 195.54370117 C172.56194089 195.54183665 170.68149849 195.54041291 168.80105591 195.53941345 C163.84607609 195.53559099 158.89112548 195.525763 153.93615723 195.51470947 C148.88224686 195.50448954 143.82833178 195.49991458 138.77441406 195.49487305 C128.8538283 195.48414051 118.93326423 195.46706732 109.01269531 195.44604492 C109.01269531 196.10604492 109.01269531 196.76604492 109.01269531 197.44604492 C109.84800781 197.81729492 109.84800781 197.81729492 110.70019531 198.19604492 C113.01269531 199.44604492 113.01269531 199.44604492 115.31347656 201.30541992 C131.46708463 214.11609607 148.80974492 215.50906652 168.55932617 215.99829102 C170.58425247 216.04980624 172.60902657 216.10719991 174.63378906 216.16479492 C175.83447021 216.19508789 177.03515137 216.22538086 178.2722168 216.2565918 C181.01269531 216.44604492 181.01269531 216.44604492 182.01269531 217.44604492 C182.63650667 223.79264738 180.24546003 226.56302714 176.50878906 231.41870117 C173.82276934 234.67639332 171.08848976 237.87173686 168.26269531 241.00854492 C167.80338623 241.5211084 167.34407715 242.03367187 166.87084961 242.56176758 C164.4598598 245.16698697 162.33679715 247.13349069 159.01269531 248.44604492 C159.01269531 249.10604492 159.01269531 249.76604492 159.01269531 250.44604492 C156.54572928 252.72781623 153.73989069 254.61279665 151.01269531 256.57104492 C150.20050537 257.15490967 149.38831543 257.73877441 148.55151367 258.34033203 C137.89511211 265.83306582 126.4608191 271.53229963 114.01269531 275.44604492 C113.34069092 275.67582031 112.66868652 275.9055957 111.97631836 276.14233398 C104.62389415 278.5391263 97.22813398 279.58433287 89.57519531 280.57104492 C88.32931641 280.73991211 87.0834375 280.9087793 85.79980469 281.08276367 C78.54965591 282.04945018 71.30337205 282.85782948 64.01269531 283.44604492 C64.91024536 283.89705566 64.91024536 283.89705566 65.82592773 284.35717773 C78.51624962 290.80653752 89.06068973 297.28608698 99.01269531 307.44604492 C100.41621163 308.64905891 101.83125998 309.83888959 103.26269531 311.00854492 C108.16667281 315.250382 112.04015405 320.34905996 116.01269531 325.44604492 C116.57085937 326.13827148 117.12902344 326.83049805 117.70410156 327.54370117 C121.84005662 332.80273541 124.96236943 338.50509609 128.01269531 344.44604492 C128.48545898 345.34891235 128.48545898 345.34891235 128.96777344 346.27001953 C131.43810151 351.06956467 133.45874825 355.92343903 135.26269531 361.00854492 C135.66488281 362.08265625 135.66488281 362.08265625 136.07519531 363.1784668 C137.69503412 367.71980059 138.48125539 371.55699047 138.01269531 376.44604492 C135.44023925 379.01850099 134.47472933 378.69649999 130.89956665 378.6977272 C129.80999853 378.7029427 128.72043041 378.70815819 127.59784508 378.71353173 C126.39105913 378.70907029 125.18427319 378.70460885 123.94091797 378.70001221 C122.66655191 378.70313219 121.39218586 378.70625217 120.07920265 378.7094667 C116.53025608 378.71785166 112.98141643 378.71367275 109.43246937 378.70749426 C105.60965546 378.70298582 101.78686049 378.7099455 97.96405029 378.7154541 C90.47054394 378.72436702 82.97707756 378.72241767 75.48356962 378.71662882 C69.39572031 378.71211978 63.30788224 378.71149613 57.22003174 378.71367645 C55.92243532 378.71413615 55.92243532 378.71413615 54.59862483 378.71460514 C52.84149535 378.71524456 51.08436588 378.71589299 49.32723641 378.71655032 C32.83429071 378.72225917 16.34136721 378.71568703 -0.15157485 378.70494959 C-14.31623029 378.69601357 -28.48085296 378.69756546 -42.64550781 378.70678711 C-59.07773949 378.71747995 -75.50995169 378.7217098 -91.94218636 378.71556258 C-93.69300461 378.71492546 -95.44382286 378.71429671 -97.19464111 378.71367645 C-98.48693762 378.71321363 -98.48693762 378.71321363 -99.80534112 378.71274145 C-105.88884788 378.71101155 -111.97234232 378.71393596 -118.05584717 378.71863556 C-125.46534827 378.72423346 -132.87480697 378.72275102 -140.28430319 378.71207407 C-144.06778644 378.70680259 -147.8511989 378.70478557 -151.6346817 378.71137238 C-155.72835909 378.71839165 -159.8218563 378.71003458 -163.91552734 378.70001221 C-165.12231329 378.70447365 -166.32909924 378.70893509 -167.57245445 378.71353173 C-168.66202257 378.70831624 -169.75159069 378.70310074 -170.87417603 378.6977272 C-171.82011438 378.6974025 -172.76605274 378.69707779 -173.7406559 378.69674325 C-175.98730469 378.44604492 -175.98730469 378.44604492 -177.98730469 376.44604492 C-178.23898697 374.14975548 -178.23898697 374.14975548 -178.24127197 371.21981812 C-178.24691162 370.1105748 -178.25255127 369.00133148 -178.25836182 367.85847473 C-178.25431335 366.63488754 -178.25026489 365.41130035 -178.24609375 364.15063477 C-178.24959839 362.86550491 -178.25310303 361.58037506 -178.25671387 360.25630188 C-178.26586837 356.71509046 -178.26227397 353.17399508 -178.2559557 349.63278151 C-178.25087928 345.89879012 -178.25559468 342.16480845 -178.25872803 338.43081665 C-178.26237641 332.12728107 -178.25755989 325.82379216 -178.24804688 319.52026367 C-178.23730207 312.31924346 -178.24058051 305.11833775 -178.25169969 297.91732061 C-178.26091957 291.68922107 -178.26198364 285.46115514 -178.25682235 279.23305094 C-178.25376329 275.53538768 -178.2531165 271.83777713 -178.25989532 268.14011765 C-178.30852233 237.42454293 -177.21797355 206.93696709 -171.11230469 176.75854492 C-170.86770508 175.54593994 -170.62310547 174.33333496 -170.37109375 173.08398438 C-168.88958198 166.00730932 -167.08476717 159.14166238 -164.85620117 152.26269531 C-163.87526892 149.08286519 -163.1665998 145.91314365 -162.57714844 142.64135742 C-161.88990853 140.08355063 -160.85515116 137.7350802 -159.7878418 135.31567383 C-158.75962677 132.91431039 -157.87978944 130.46350911 -156.99707031 128.00561523 C-153.82448138 119.20323613 -150.0351976 110.78365712 -145.92919922 102.38110352 C-145.06895653 100.6137931 -144.22825389 98.83700569 -143.38964844 97.05932617 C-140.16503108 90.34352308 -136.38836555 84.44194566 -131.98730469 78.44604492 C-131.21261608 77.34366808 -130.44063261 76.23938688 -129.67089844 75.13354492 C-124.19246271 67.29109695 -118.59710028 59.3863303 -111.98730469 52.44604492 C-111.32730469 52.44604492 -110.66730469 52.44604492 -109.98730469 52.44604492 C-109.32730469 50.79604492 -108.66730469 49.14604492 -107.98730469 47.44604492 C-107.32730469 47.44604492 -106.66730469 47.44604492 -105.98730469 47.44604492 C-105.61605469 46.51791992 -105.61605469 46.51791992 -105.23730469 45.57104492 C-103.78101829 43.09535805 -102.60917963 42.4947949 -99.98730469 41.44604492 C-99.98730469 40.78604492 -99.98730469 40.12604492 -99.98730469 39.44604492 C-98.78074219 39.04385742 -98.78074219 39.04385742 -97.54980469 38.63354492 C-96.70417969 38.24166992 -95.85855469 37.84979492 -94.98730469 37.44604492 C-94.65730469 36.45604492 -94.32730469 35.46604492 -93.98730469 34.44604492 C-92.61132812 33.13085938 -92.61132812 33.13085938 -90.84667969 31.80932617 C-90.19513916 31.31843506 -89.54359863 30.82754395 -88.87231445 30.32177734 C-88.16776123 29.80591064 -87.46320801 29.29004395 -86.73730469 28.75854492 C-86.01148193 28.22398682 -85.28565918 27.68942871 -84.5378418 27.13867188 C-73.58247031 19.15551105 -62.56270225 13.01733444 -49.90136719 8.18041992 C-48.25567815 7.5490127 -46.62034954 6.89071939 -44.98730469 6.22729492 C-30.21720693 0.42475652 -15.68132149 -0.06020791 0 0 Z M-38.98730469 96.44604492 C-44.61917316 103.39908802 -49.64982703 110.6200149 -53.98730469 118.44604492 C-54.37789062 119.1447168 -54.76847656 119.84338867 -55.17089844 120.56323242 C-57.18248506 124.35061529 -58.55757357 127.9634252 -59.48730469 132.18041992 C-60.31295039 135.92162701 -61.33199873 139.61544811 -62.30371094 143.32104492 C-67.40565795 166.64423128 -64.12068463 192.8123849 -53.42480469 214.13354492 C-53.08618408 214.81126953 -52.74756348 215.48899414 -52.39868164 216.18725586 C-48.64413271 223.46111266 -43.93242899 229.94623679 -38.98730469 236.44604492 C-38.436875 237.23495117 -37.88644531 238.02385742 -37.31933594 238.83666992 C-36.65998047 239.63331055 -36.65998047 239.63331055 -35.98730469 240.44604492 C-35.32730469 240.44604492 -34.66730469 240.44604492 -33.98730469 240.44604492 C-33.98730469 241.10604492 -33.98730469 241.76604492 -33.98730469 242.44604492 C-33.32730469 242.44604492 -32.66730469 242.44604492 -31.98730469 242.44604492 C-31.98730469 243.10604492 -31.98730469 243.76604492 -31.98730469 244.44604492 C-30.50997217 246.01896727 -30.50997217 246.01896727 -28.54980469 247.63354492 C-27.82664063 248.2497168 -27.10347656 248.86588867 -26.35839844 249.50073242 C-23.24508568 252.05498243 -20.0740967 254.52630954 -16.87011719 256.96557617 C-14.98730469 258.44604492 -14.98730469 258.44604492 -12.98730469 260.44604492 C-10.78850375 258.24724398 -11.58427481 252.6309418 -11.46972656 249.52416992 C-11.26882049 245.39990936 -10.6829096 242.19732529 -8.98730469 238.44604492 C-8.70779313 237.09766046 -8.45731685 235.7429058 -8.23730469 234.38354492 C-7.16572095 229.22438771 -4.87620162 224.87606013 -2.42480469 220.24291992 C-0.97482557 217.54768583 -0.97482557 217.54768583 -0.05371094 215.00073242 C1.31730674 211.71631645 3.14651515 208.79758096 5.07519531 205.82104492 C5.47222656 205.207854 5.86925781 204.59466309 6.27832031 203.96289062 C23.63979465 177.60233979 49.36511811 161.19750193 77.09033203 147.41308594 C95.68336132 138.54974095 95.68336132 138.54974095 107.38769531 122.38354492 C109.14069591 114.14444211 105.16958647 107.38564834 101.01269531 100.44604492 C98.22263382 96.58864447 95.35550915 92.84234378 92.01269531 89.44604492 C91.35269531 89.44604492 90.69269531 89.44604492 90.01269531 89.44604492 C89.68269531 88.45604492 89.35269531 87.46604492 89.01269531 86.44604492 C50.30193125 54.62975271 -6.00299007 59.20780084 -38.98730469 96.44604492 Z " fill="#FAF7F6" transform="translate(235.9873046875,61.553955078125)"/>
<path d="M0 0 C5.18570025 3.01713469 9.51359715 7.22829145 11.4375 13 C12.0010668 18.68985711 11.76546433 23.16908403 8.4375 28 C3.81375478 32.65725062 -0.54164779 36.2542126 -7.3125 36.4375 C-12.83418343 36.31533886 -16.43900689 34.6176016 -20.5625 31 C-24.05351871 26.8658989 -26.24654226 22.43052357 -26.5625 17 C-25.45893881 10.1257334 -22.54162072 5.95758606 -16.96484375 1.8125 C-11.24396727 -1.94060348 -6.45159013 -1.81097267 0 0 Z " fill="#F9F5F8" transform="translate(303.5625,159)"/>
<path d="M0 0 C0.33 0.33 0.66 0.66 1 1 C2.51928038 1.07179964 4.04167482 1.08392007 5.5625 1.0625 C6.38878906 1.05347656 7.21507812 1.04445313 8.06640625 1.03515625 C9.02353516 1.01775391 9.02353516 1.01775391 10 1 C9.67 1.66 9.34 2.32 9 3 C-41.16 3 -91.32 3 -143 3 C-142.67 2.34 -142.34 1.68 -142 1 C-141.42152471 1.00092179 -140.84304941 1.00184359 -140.24704456 1.00279331 C-126.06953008 1.02502847 -111.89201825 1.04149827 -97.71448994 1.05181217 C-90.85791199 1.05693445 -84.00134579 1.063898 -77.14477539 1.07543945 C-70.51169553 1.08659924 -63.87862454 1.09230626 -57.2455349 1.09487724 C-54.73137407 1.09670638 -52.21721382 1.10027738 -49.70305824 1.10573006 C-36.14826824 1.13392341 -22.65292264 0.98202759 -9.11784363 0.21531677 C-2.78766131 -0.13054129 -2.78766131 -0.13054129 0 0 Z " fill="#F7ECFF" transform="translate(279,436)"/>
<path d="M0 0 C0.33 0 0.66 0 1 0 C0.06186215 8.44324069 -1.25490968 16.93629719 -4 25 C-7.13997668 26.56998834 -10.49176361 26.12944545 -13.93798828 26.11352539 C-14.75758026 26.11367142 -15.57717224 26.11381744 -16.42160034 26.1139679 C-19.1378644 26.11326974 -21.85406038 26.10548188 -24.5703125 26.09765625 C-26.45075442 26.09579173 -28.33119683 26.09436798 -30.2116394 26.09336853 C-35.16661922 26.08954607 -40.12156983 26.07971808 -45.07653809 26.06866455 C-50.13044845 26.05844461 -55.18436353 26.05386966 -60.23828125 26.04882812 C-70.15886701 26.03809559 -80.07943108 26.0210224 -90 26 C-90.33 26.66 -90.66 27.32 -91 28 C-91.66 27.01 -92.32 26.02 -93 25 C-89.92730298 23.46365149 -86.70798882 23.87032175 -83.33740234 23.88647461 C-82.54707108 23.88632858 -81.75673981 23.88618256 -80.94245911 23.8860321 C-78.32359089 23.88673017 -75.70479333 23.89451761 -73.0859375 23.90234375 C-71.27275634 23.90420831 -69.45957467 23.90563203 -67.64639282 23.90663147 C-62.86896377 23.91045368 -58.09156501 23.92028145 -53.31414795 23.93133545 C-48.44120697 23.94155593 -43.5682611 23.94613046 -38.6953125 23.95117188 C-29.13019501 23.96190397 -19.56510002 23.97897686 -10 24 C-9.71125 23.38125 -9.4225 22.7625 -9.125 22.125 C-8 20 -8 20 -6 18 C-5.34 18.33 -4.68 18.66 -4 19 C-4 17.35 -4 15.7 -4 14 C-3.34 14 -2.68 14 -2 14 C-2.08378906 13.38511719 -2.16757812 12.77023438 -2.25390625 12.13671875 C-2.40666016 10.92435547 -2.40666016 10.92435547 -2.5625 9.6875 C-2.71912109 8.48673828 -2.71912109 8.48673828 -2.87890625 7.26171875 C-3 5 -3 5 -2 2 C-1.505 2.495 -1.505 2.495 -1 3 C-0.67 2.01 -0.34 1.02 0 0 Z " fill="#E2D7FD" transform="translate(435,231)"/>
<path d="M0 0 C0.33 0 0.66 0 1 0 C0.99887207 1.16047852 0.99774414 2.32095703 0.99658203 3.51660156 C1.00025549 7.82585443 1.04306543 12.13398713 1.09765625 16.44287109 C1.11581494 18.3070555 1.12338497 20.17137455 1.12011719 22.03564453 C1.11725956 24.71753057 1.15257506 27.39662558 1.1953125 30.078125 C1.18621857 30.91055725 1.17712463 31.7429895 1.16775513 32.60064697 C1.22517892 34.89115606 1.32660935 36.80881842 2 39 C4.873632 41.61778772 4.873632 41.61778772 8 43 C8.66 42.34 9.32 41.68 10 41 C13.625 40.875 13.625 40.875 17 41 C17 41.99 17 42.98 17 44 C18.485 43.7525 18.485 43.7525 20 43.5 C26.94880525 42.60622251 34.00882501 42.92364008 41 43 C40.505 43.99 40.505 43.99 40 45 C34.78556667 45.02470935 29.57116739 45.04286444 24.35668945 45.05493164 C22.58259487 45.059962 20.80850444 45.06678699 19.03442383 45.07543945 C16.48517839 45.08756174 13.93598774 45.09324126 11.38671875 45.09765625 C10.19594978 45.10539818 10.19594978 45.10539818 8.98112488 45.11329651 C5.72343714 45.11362877 3.11318479 45.03772826 0 44 C0 29.48 0 14.96 0 0 Z " fill="#E5CDEB" transform="translate(58,394)"/>
<path d="M0 0 C0.33 0 0.66 0 1 0 C1.125 3.375 1.125 3.375 1 7 C-1 9 -1 9 -4.71533203 9.22705078 C-6.31286052 9.22673351 -7.91041027 9.21539982 -9.5078125 9.1953125 C-10.76874222 9.19106766 -10.76874222 9.19106766 -12.05514526 9.18673706 C-14.74524046 9.1755243 -17.4350051 9.15041803 -20.125 9.125 C-21.94660978 9.1149716 -23.76822477 9.10584551 -25.58984375 9.09765625 C-30.06002358 9.07558142 -34.52995571 9.04104434 -39 9 C-39 8.67 -39 8.34 -39 8 C-37.27185839 7.80327635 -35.54240803 7.61803201 -33.8125 7.4375 C-32.84957031 7.33308594 -31.88664062 7.22867187 -30.89453125 7.12109375 C-28.05766623 7.00241249 -25.74576329 7.32234361 -23 8 C-23 7.01 -23 6.02 -23 5 C-13.1 4.505 -13.1 4.505 -3 4 C-3 4.66 -3 5.32 -3 6 C-2.01 6 -1.02 6 0 6 C0 4.02 0 2.04 0 0 Z " fill="#E8E9EA" transform="translate(373,431)"/>
<path d="M0 0 C0.99 0.33 1.98 0.66 3 1 C2.67 2.65 2.34 4.3 2 6 C1.05125 6.2475 0.1025 6.495 -0.875 6.75 C-4.08838835 7.661178 -4.08838835 7.661178 -5.1875 10.0625 C-5.455625 10.701875 -5.72375 11.34125 -6 12 C-6.99 12.33 -7.98 12.66 -9 13 C-9.28875 13.763125 -9.5775 14.52625 -9.875 15.3125 C-11 18 -11 18 -13.3125 19.8125 C-16.34653075 22.28205991 -17.86784405 24.73874748 -19.7890625 28.09765625 C-21.01093526 30.01717894 -22.33679706 31.45697068 -24 33 C-24.66 32.67 -25.32 32.34 -26 32 C-21.73129402 25.94273007 -17.33025701 20.03599461 -12.625 14.3125 C-11.79226562 13.29800781 -10.95953125 12.28351563 -10.1015625 11.23828125 C-9.40804687 10.49964844 -8.71453125 9.76101562 -8 9 C-7.34 9 -6.68 9 -6 9 C-5.34 7.35 -4.68 5.7 -4 4 C-3.34 4 -2.68 4 -2 4 C-1.34 2.68 -0.68 1.36 0 0 Z " fill="#F2E0FD" transform="translate(132,105)"/>
<path d="M0 0 C0 8.62962963 0 8.62962963 -2.6875 12.3125 C-5 14 -5 14 -8.0625 15 C-11.33126327 16.11277048 -12.25682293 17.09470489 -14 20 C-15.32 19.34 -16.64 18.68 -18 18 C-16.54634731 16.82750647 -15.08692581 15.66216184 -13.625 14.5 C-12.81289063 13.8503125 -12.00078125 13.200625 -11.1640625 12.53125 C-9 11 -9 11 -7 11 C-6.731875 10.443125 -6.46375 9.88625 -6.1875 9.3125 C-4.42337578 5.87710021 -2.74206894 2.74206894 0 0 Z " fill="#F3E8FD" transform="translate(344,184)"/>
<path d="M0 0 C2 1 2 1 2 1 Z M-6 1 C-1.72440538 0.80113513 1.09977547 1.29990213 5 3 C6.65919896 3.36871088 8.3247643 3.71281674 10 4 C10 4.33 10 4.66 10 5 C2.26940505 6.35709504 -5.14453364 7.31918373 -13 7 C-13 6.67 -13 6.34 -13 6 C-11.824375 5.87625 -11.824375 5.87625 -10.625 5.75 C-7.85250896 5.27193661 -7.85250896 5.27193661 -6.6875 2.9375 C-6.460625 2.298125 -6.23375 1.65875 -6 1 Z " fill="#E9CDF1" transform="translate(314,337)"/>
<path d="M0 0 C0.66 0.33 1.32 0.66 2 1 C1.67 1.33 1.34 1.66 1 2 C0.76501076 3.61881478 0.58623529 5.24599446 0.4375 6.875 C0.35371094 7.75929688 0.26992187 8.64359375 0.18359375 9.5546875 C-0.03743458 12.08989753 -0.03743458 12.08989753 0 15 C-1.74418605 21.74418605 -1.74418605 21.74418605 -3 23 C-3.23075082 24.34747084 -3.41153063 25.70377565 -3.5625 27.0625 C-3.706875 28.361875 -3.85125 29.66125 -4 31 C-4.33 31 -4.66 31 -5 31 C-5.05420701 28.43721301 -5.09377007 25.87558517 -5.125 23.3125 C-5.15013672 22.2306543 -5.15013672 22.2306543 -5.17578125 21.12695312 C-5.21439704 16.8985236 -4.77559829 13.81982953 -3 10 C-2.61127973 8.42479366 -2.25517731 6.84105613 -1.9375 5.25 C-1.10766046 1.10766046 -1.10766046 1.10766046 0 0 Z " fill="#EDD8FB" transform="translate(229,290)"/>
<path d="M0 0 C0.33 0.66 0.66 1.32 1 2 C1.66 2 2.32 2 3 2 C3 2.66 3 3.32 3 4 C3.66 4 4.32 4 5 4 C5 5.32 5 6.64 5 8 C3.68 8 2.36 8 1 8 C1 8.99 1 9.98 1 11 C-0.32 11 -1.64 11 -3 11 C-6.11785113 11.64644661 -6.11785113 11.64644661 -7 14 C-7.66 13.67 -8.32 13.34 -9 13 C-6.09700957 8.59175527 -3.08418637 4.28359219 0 0 Z " fill="#FBF8FC" transform="translate(251,252)"/>
<path d="M0 0 C0.66 0.33 1.32 0.66 2 1 C1.525625 2.216875 1.05125 3.43375 0.5625 4.6875 C-1.74105405 10.27103491 -1.74105405 10.27103491 -1.3125 16.0625 C-1.209375 16.701875 -1.10625 17.34125 -1 18 C-2.8125 20.25 -2.8125 20.25 -5 22 C-5.66 22 -6.32 22 -7 22 C-6.50520827 16.35937423 -5.44765788 12.17773782 -3 7 C-2.43223349 5.6897696 -1.86957829 4.37731036 -1.3125 3.0625 C-0.6628125 1.5465625 -0.6628125 1.5465625 0 0 Z " fill="#F3DDF8" transform="translate(80,188)"/>
<path d="M0 0 C0.99 0 1.98 0 3 0 C3 0.66 3 1.32 3 2 C3.66 2.33 4.32 2.66 5 3 C3.73147606 4.60599349 2.460089 6.20972575 1.1875 7.8125 C0.12595703 9.15248047 0.12595703 9.15248047 -0.95703125 10.51953125 C-2.56411377 12.47076911 -4.17040423 14.26274976 -6 16 C-7.09658936 12.71023192 -6.79953138 11.28696233 -6 8 C-4.68 8 -3.36 8 -2 8 C-2.3403125 7.13375 -2.3403125 7.13375 -2.6875 6.25 C-3 4 -3 4 -1.75 1.75 C-1.1725 1.1725 -0.595 0.595 0 0 Z " fill="#F6ECFE" transform="translate(192,157)"/>
<path d="M0 0 C2.40593035 1.06930238 4.25620188 2.20773125 6.3125 3.875 C9.40125621 6.31727235 12.55121572 8.10654981 16 10 C14 12 14 12 10.375 12.125 C9.26125 12.08375 8.1475 12.0425 7 12 C6.95875 11.443125 6.9175 10.88625 6.875 10.3125 C5.56824501 6.85893325 2.79730469 5.32116772 0 3 C0 2.01 0 1.02 0 0 Z " fill="#FEF1FD" transform="translate(345,259)"/>
<path d="M0 0 C0.33 0 0.66 0 1 0 C1.125 3.375 1.125 3.375 1 7 C-1 9 -1 9 -4.71533203 9.22705078 C-6.31286052 9.22673351 -7.91041027 9.21539982 -9.5078125 9.1953125 C-10.76874222 9.19106766 -10.76874222 9.19106766 -12.05514526 9.18673706 C-14.74524046 9.1755243 -17.4350051 9.15041803 -20.125 9.125 C-21.94660978 9.1149716 -23.76822477 9.10584551 -25.58984375 9.09765625 C-30.06002358 9.07558142 -34.52995571 9.04104434 -39 9 C-39 8.67 -39 8.34 -39 8 C-31.15653969 7.12861247 -23.44912947 6.90172424 -15.5625 7 C-13.45968725 7.02553507 -11.35681361 7.04655882 -9.25390625 7.0625 C-8.33939697 7.07410156 -7.4248877 7.08570313 -6.48266602 7.09765625 C-4.16454514 7.00647242 -2.21661995 6.65783142 0 6 C0 4.02 0 2.04 0 0 Z " fill="#E7E6FE" transform="translate(373,431)"/>
<path d="M0 0 C0.33 0.66 0.66 1.32 1 2 C0.01 2.495 0.01 2.495 -1 3 C-1.144375 3.639375 -1.28875 4.27875 -1.4375 4.9375 C-2 7 -2 7 -5 9 C-7.33297433 9.04092937 -9.66705225 9.04241723 -12 9 C-12.99 9.495 -12.99 9.495 -14 10 C-12.68682429 6.06047287 -11.18611861 5.75042289 -7.5625 3.875 C-6.07943359 3.09769531 -6.07943359 3.09769531 -4.56640625 2.3046875 C-3.04651888 1.53202025 -1.52501076 0.76250538 0 0 Z " fill="#FBEBFD" transform="translate(302,214)"/>
<path d="M0 0 C0.66 0.33 1.32 0.66 2 1 C1.360625 1.185625 0.72125 1.37125 0.0625 1.5625 C-2.42126213 2.94246056 -2.42126213 2.94246056 -2.75 6.625 C-2.8325 7.73875 -2.915 8.8525 -3 10 C-9.625 9.25 -9.625 9.25 -13 7 C-10.88002166 5.80266012 -8.75486324 4.61701287 -6.625 3.4375 C-6.02171875 3.09525391 -5.4184375 2.75300781 -4.796875 2.40039062 C-3.23021759 1.53872905 -1.61709138 0.76281817 0 0 Z " fill="#F2E7FD" transform="translate(317,206)"/>
<path d="M0 0 C2 1 2 1 2.62109375 2.734375 C3.04706889 5.28144284 3.09646629 7.66856169 3.0625 10.25 C3.05347656 11.14203125 3.04445312 12.0340625 3.03515625 12.953125 C3.02355469 13.62859375 3.01195312 14.3040625 3 15 C2.34 15 1.68 15 1 15 C-1.17935819 10.45967044 -2.59873581 7.14912794 -2 2 C-1.34 1.34 -0.68 0.68 0 0 Z " fill="#FEDFFC" transform="translate(170,201)"/>
<path d="M0 0 C0.33 0 0.66 0 1 0 C0.05326888 8.52058006 -1.50251642 16.79398252 -4 25 C-4.66 25 -5.32 25 -6 25 C-5.40049704 21.31733897 -4.75241109 17.65456815 -4 14 C-3.34 14 -2.68 14 -2 14 C-2.08378906 13.38511719 -2.16757812 12.77023438 -2.25390625 12.13671875 C-2.35574219 11.32847656 -2.45757812 10.52023438 -2.5625 9.6875 C-2.66691406 8.88699219 -2.77132813 8.08648437 -2.87890625 7.26171875 C-3 5 -3 5 -2 2 C-1.67 2.33 -1.34 2.66 -1 3 C-0.67 2.01 -0.34 1.02 0 0 Z " fill="#F7C7FF" transform="translate(435,231)"/>
<path d="M0 0 C0.33 0.66 0.66 1.32 1 2 C-0.051875 2.04125 -1.10375 2.0825 -2.1875 2.125 C-7.04454918 3.2397326 -8.25815656 4.92640403 -11 9 C-12.3049484 11.7124618 -12.3049484 11.7124618 -13 14 C-14.125 12.25 -14.125 12.25 -15 10 C-14.125 7.75 -14.125 7.75 -13 6 C-12.34 6 -11.68 6 -11 6 C-11 5.34 -11 4.68 -11 4 C-10.34 4 -9.68 4 -9 4 C-9 3.01 -9 2.02 -9 1 C-6.04335481 -0.4783226 -3.25770263 -0.06032783 0 0 Z " fill="#ECCCFD" transform="translate(407,194)"/>
<path d="M0 0 C0.680625 0.45375 1.36125 0.9075 2.0625 1.375 C5.30435186 3.16836486 8.4203441 4.08753869 12 5 C12 5.33 12 5.66 12 6 C4.74 5.67 -2.52 5.34 -10 5 C-10 4.67 -10 4.34 -10 4 C-7.69 4 -5.38 4 -3 4 C-3 3.34 -3 2.68 -3 2 C-2.01 1.34 -1.02 0.68 0 0 Z " fill="#E4CBED" transform="translate(266,122)"/>
<path d="M0 0 C1.485 0.99 1.485 0.99 3 2 C3.3125 5 3.3125 5 3 8 C2.34 8.66 1.68 9.32 1 10 C0.69324768 12.89967757 0.48826629 15.71783178 0.375 18.625 C0.33632813 19.42679687 0.29765625 20.22859375 0.2578125 21.0546875 C0.16346069 23.03607556 0.08063785 25.01800645 0 27 C-0.33 27 -0.66 27 -1 27 C-1.18451025 7.99544419 -1.18451025 7.99544419 0 0 Z " fill="#D9C9E7" transform="translate(60,271)"/>
<path d="M0 0 C0.33 0.66 0.66 1.32 1 2 C4.02934491 2.65772428 4.02934491 2.65772428 7 3 C3.63576723 5.96052484 0.30840713 6.92289822 -4 8 C-4 6.68 -4 5.36 -4 4 C-3.01 4 -2.02 4 -1 4 C-0.67 2.68 -0.34 1.36 0 0 Z " fill="#F3EDFA" transform="translate(356,328)"/>
<path d="M0 0 C0.66 0.99 1.32 1.98 2 3 C0.68 4.65 -0.64 6.3 -2 8 C-2.78375 7.814375 -3.5675 7.62875 -4.375 7.4375 C-6.97089775 6.74037734 -6.97089775 6.74037734 -9 8 C-7.82255415 4.46766245 -7.04394359 4.13691925 -3.9375 2.3125 C-3.20402344 1.87550781 -2.47054688 1.43851563 -1.71484375 0.98828125 C-1.14894531 0.66214844 -0.58304687 0.33601562 0 0 Z " fill="#F3E9FA" transform="translate(285,224)"/>
<path d="M0 0 C1.32 0.99 2.64 1.98 4 3 C3.67 4.65 3.34 6.3 3 8 C2.34 8 1.68 8 1 8 C0.67 9.98 0.34 11.96 0 14 C-1.53508028 11.56661348 -2.03088304 10.32875493 -1.7578125 7.421875 C-1.54898438 6.54015625 -1.34015625 5.6584375 -1.125 4.75 C-0.92132813 3.85796875 -0.71765625 2.9659375 -0.5078125 2.046875 C-0.34023437 1.37140625 -0.17265625 0.6959375 0 0 Z " fill="#F8EBFA" transform="translate(68,224)"/>
<path d="M0 0 C0.33 0.99 0.66 1.98 1 3 C0.67 3.66 0.34 4.32 0 5 C-3.93673644 3.68775452 -6.22719294 2.08089673 -9 -1 C-5.40440208 -2.33170293 -3.34558716 -1.80842549 0 0 Z " fill="#F1EBFE" transform="translate(318,138)"/>
<path d="M0 0 C0.66 0.33 1.32 0.66 2 1 C1.07347299 2.17539996 0.13336613 3.34010577 -0.8125 4.5 C-1.33457031 5.1496875 -1.85664063 5.799375 -2.39453125 6.46875 C-4 8 -4 8 -7 8 C-7 8.66 -7 9.32 -7 10 C-7.66 10 -8.32 10 -9 10 C-7.63842622 4.70499087 -4.39656045 2.76254467 0 0 Z " fill="#EAE0FC" transform="translate(289,159)"/>
<path d="M0 0 C3.93548431 3.06093224 6.68116787 5.49115974 9 10 C5 10 5 10 2.25 7.8125 C0 5 0 5 -0.3125 2.1875 C-0.209375 1.465625 -0.10625 0.74375 0 0 Z " fill="#F5E2FE" transform="translate(342,377)"/>
<path d="M0 0 C0.99 0.66 1.98 1.32 3 2 C1.21190303 3.17213045 -0.58059125 4.33755526 -2.375 5.5 C-3.37273437 6.1496875 -4.37046875 6.799375 -5.3984375 7.46875 C-8 9 -8 9 -10 9 C-9.1875 7.0625 -9.1875 7.0625 -8 5 C-7.01 4.67 -6.02 4.34 -5 4 C-4.67 3.34 -4.34 2.68 -4 2 C-1.9375 0.875 -1.9375 0.875 0 0 Z " fill="#EDE4FE" transform="translate(380,319)"/>
<path d="M0 0 C0.66 0.33 1.32 0.66 2 1 C-1.85421412 9.6309795 -1.85421412 9.6309795 -6 12 C-5.43958106 7.23643901 -3.41302403 3.41302403 0 0 Z " fill="#F2DEFB" transform="translate(241,267)"/>
<path d="M0 0 C0.33 0 0.66 0 1 0 C0.9127395 2.25071906 0.80455885 4.50063388 0.6875 6.75 C0.62949219 8.00296875 0.57148437 9.2559375 0.51171875 10.546875 C0 14 0 14 -3 18 C-2.67 12.72 -2.34 7.44 -2 2 C-1.34 2 -0.68 2 0 2 C0 1.34 0 0.68 0 0 Z " fill="#F2C5FD" transform="translate(64,251)"/>
<path d="M0 0 C2.3431213 0.25561323 4.67843403 0.59270772 7 1 C7.33 1.66 7.66 2.32 8 3 C7.1028125 3.1546875 7.1028125 3.1546875 6.1875 3.3125 C3.71756736 4.08876455 2.67748765 5.07088921 1 7 C0 4 0 4 0 0 Z " fill="#FADEFE" transform="translate(364,272)"/>
<path d="M0 0 C0.99 0 1.98 0 3 0 C3.53394179 1.4117783 4.05165104 2.82970244 4.5625 4.25 C4.85253906 5.03890625 5.14257812 5.8278125 5.44140625 6.640625 C6.04522837 9.19103452 5.8473932 10.55322229 5 13 C4.16209211 11.21046815 3.32980604 9.41830305 2.5 7.625 C1.80390625 6.12839844 1.80390625 6.12839844 1.09375 4.6015625 C0 2 0 2 0 0 Z " fill="#F0E1FB" transform="translate(338,163)"/>
<path d="M0 0 C0.66 0 1.32 0 2 0 C2.061875 0.78375 2.12375 1.5675 2.1875 2.375 C2.455625 3.24125 2.72375 4.1075 3 5 C4.64551962 5.71727778 6.31422289 6.38325228 8 7 C9.3125 9.125 9.3125 9.125 10 11 C7 11 7 11 5.46484375 9.5390625 C4.96082031 8.90742188 4.45679688 8.27578125 3.9375 7.625 C2.33936718 5.64868307 0.80006019 3.80006019 -1 2 C-0.67 1.34 -0.34 0.68 0 0 Z " fill="#F5E4FB" transform="translate(324,145)"/>
<path d="M0 0 C1.17219543 0.78345715 2.33763668 1.57702836 3.5 2.375 C4.47453125 3.03628906 4.47453125 3.03628906 5.46875 3.7109375 C5.9740625 4.13632812 6.479375 4.56171875 7 5 C7 5.66 7 6.32 7 7 C5.35 7 3.7 7 2 7 C1.01 5.02 0.02 3.04 -1 1 C-0.67 0.67 -0.34 0.34 0 0 Z " fill="#F9E8FE" transform="translate(332,367)"/>
<path d="M0 0 C2.86237248 2.86237248 3.90730493 4.06081905 4.09765625 8.04296875 C4.06510417 10.02864583 4.03255208 12.01432292 4 14 C3.67 12.68 3.34 11.36 3 10 C2.34 10 1.68 10 1 10 C0.67 6.7 0.34 3.4 0 0 Z " fill="#E9CDF9" transform="translate(311,166)"/>
<path d="M0 0 C1 3 1 3 -0.25 6.5 C-1.67322614 9.34645229 -2.58327112 11.04360043 -5 13 C-5.66 12.67 -6.32 12.34 -7 12 C-6.20994338 10.56161448 -5.41788955 9.12432585 -4.625 7.6875 C-4.18414062 6.88699219 -3.74328125 6.08648437 -3.2890625 5.26171875 C-2.26486665 3.46472057 -1.14732862 1.72099292 0 0 Z " fill="#EBD1FE" transform="translate(100,146)"/>
<path d="M0 0 C0.99 0.33 1.98 0.66 3 1 C-0.96 4.465 -0.96 4.465 -5 8 C-5.66 7.34 -6.32 6.68 -7 6 C-2.25 1.125 -2.25 1.125 0 0 Z " fill="#F5ECFD" transform="translate(210,143)"/>
<path d="M0 0 C0.99 0.33 1.98 0.66 3 1 C1.625 3 1.625 3 0 5 C-0.66 5 -1.32 5 -2 5 C-2 5.66 -2 6.32 -2 7 C-3.32 7.33 -4.64 7.66 -6 8 C-5.34 6.35 -4.68 4.7 -4 3 C-3.01 3 -2.02 3 -1 3 C-0.67 2.01 -0.34 1.02 0 0 Z " fill="#F5EEFA" transform="translate(109,135)"/>
<path d="M0 0 C-4.01254885 3.51098025 -8.20983041 5.76537994 -13 8 C-11.60632076 4.62772951 -10.15724701 3.09506287 -7.0625 1.1875 C-6.37285156 0.74792969 -5.68320313 0.30835937 -4.97265625 -0.14453125 C-3 -1 -3 -1 0 0 Z " fill="#EFDAFC" transform="translate(166,82)"/>
<path d="M0 0 C0.66 0.33 1.32 0.66 2 1 C0.875 2.9375 0.875 2.9375 -1 5 C-4.0625 5.625 -4.0625 5.625 -7 6 C-7.66 6.66 -8.32 7.32 -9 8 C-9.33 7.01 -9.66 6.02 -10 5 C-8.38007835 4.13624104 -6.75388139 3.28424146 -5.125 2.4375 C-4.22007812 1.96183594 -3.31515625 1.48617187 -2.3828125 0.99609375 C-1.20332031 0.50302734 -1.20332031 0.50302734 0 0 Z " fill="#F2D7FE" transform="translate(182,71)"/>
<path d="M0 0 C0.66 0 1.32 0 2 0 C2 0.66 2 1.32 2 2 C3.32 2.66 4.64 3.32 6 4 C6 4.66 6 5.32 6 6 C6.61875 6.28875 7.2375 6.5775 7.875 6.875 C10 8 10 8 12 10 C7.15175132 9.58443583 5.11963138 7.62551755 2 4 C0.6875 1.6875 0.6875 1.6875 0 0 Z " fill="#FDEAFF" transform="translate(202,304)"/>
<path d="M0 0 C0.33 0.99 0.66 1.98 1 3 C0.01 4.485 0.01 4.485 -1 6 C-1.66 6 -2.32 6 -3 6 C-3.309375 6.61875 -3.61875 7.2375 -3.9375 7.875 C-4.625 9.25 -5.3125 10.625 -6 12 C-6.66 11.67 -7.32 11.34 -8 11 C-5.50127818 7.1626772 -2.9156164 3.54039134 0 0 Z " fill="#F3DEFF" transform="translate(250,254)"/>
<path d="M0 0 C0 0.66 0 1.32 0 2 C-0.66 2 -1.32 2 -2 2 C-2.33 2.99 -2.66 3.98 -3 5 C-4.32 4.67 -5.64 4.34 -7 4 C-7 3.34 -7 2.68 -7 2 C-7.99 1.67 -8.98 1.34 -10 1 C-6.56484998 0.37542727 -3.50935186 0 0 0 Z " fill="#E6DDF9" transform="translate(210,64)"/>
<path d="M0 0 C2.52394612 3.12488567 4.39701907 6.31314387 6 10 C5.67 10.66 5.34 11.32 5 12 C4.896875 11.360625 4.79375 10.72125 4.6875 10.0625 C4.460625 9.381875 4.23375 8.70125 4 8 C3.01 7.67 2.02 7.34 1 7 C1 6.34 1 5.68 1 5 C0.34 4.67 -0.32 4.34 -1 4 C-0.67 2.68 -0.34 1.36 0 0 Z " fill="#F4D7FE" transform="translate(361,402)"/>
<path d="M0 0 C0.66 0 1.32 0 2 0 C2 0.99 2 1.98 2 3 C2.99 3 3.98 3 5 3 C5.33 4.32 5.66 5.64 6 7 C3.69 6.34 1.38 5.68 -1 5 C-0.67 3.35 -0.34 1.7 0 0 Z " fill="#F7E5FB" transform="translate(298,129)"/>
<path d="M0 0 C0 0.66 0 1.32 0 2 C-1.40691607 2.72750788 -2.82606022 3.43140353 -4.25 4.125 C-5.03890625 4.51945312 -5.8278125 4.91390625 -6.640625 5.3203125 C-9 6 -9 6 -11.296875 5.1171875 C-11.85890625 4.74851562 -12.4209375 4.37984375 -13 4 C-11.2097939 3.32942113 -9.41778511 2.6636531 -7.625 2 C-6.62726563 1.62875 -5.62953125 1.2575 -4.6015625 0.875 C-2 0 -2 0 0 0 Z " fill="#EEDBFC" transform="translate(198,66)"/>
<path d="M0 0 C0.66 0 1.32 0 2 0 C6 5.41176471 6 5.41176471 6 8 C4.35 7.67 2.7 7.34 1 7 C0.67 4.69 0.34 2.38 0 0 Z " fill="#F6E1FE" transform="translate(184,281)"/>
<path d="M0 0 C0.33 0 0.66 0 1 0 C0.14285714 8.57142857 0.14285714 8.57142857 -2 12 C-3.1577506 8.52674819 -3.06866652 5.63932552 -3 2 C-2.01 2.495 -2.01 2.495 -1 3 C-0.67 2.01 -0.34 1.02 0 0 Z " fill="#DCCCF4" transform="translate(435,231)"/>
<path d="M0 0 C0.99 0.33 1.98 0.66 3 1 C-1.14285714 7.42857143 -1.14285714 7.42857143 -4 10 C-4.66 9.67 -5.32 9.34 -6 9 C-4.02 6.03 -2.04 3.06 0 0 Z " fill="#E5DAFE" transform="translate(112,128)"/>
<path d="M0 0 C0.66 0.33 1.32 0.66 2 1 C1.67 3.97 1.34 6.94 1 10 C-0.625 8.375 -0.625 8.375 -2 6 C-1.1875 2.75 -1.1875 2.75 0 0 Z " fill="#F0E8F3" transform="translate(173,198)"/>
<path d="M0 0 C1.9375 0.8125 1.9375 0.8125 4 2 C4.33 2.99 4.66 3.98 5 5 C4.01 5.33 3.02 5.66 2 6 C2 5.34 2 4.68 2 4 C0.68 3.67 -0.64 3.34 -2 3 C-1.34 2.01 -0.68 1.02 0 0 Z " fill="#FAECFE" transform="translate(418,177)"/>
<path d="M0 0 C0.33 0 0.66 0 1 0 C1.125 3.375 1.125 3.375 1 7 C-1 9 -1 9 -2.9453125 9.1953125 C-4.96354167 9.13020833 -6.98177083 9.06510417 -9 9 C-9 8.67 -9 8.34 -9 8 C-6.03 7.34 -3.06 6.68 0 6 C0 4.02 0 2.04 0 0 Z " fill="#F28CFC" transform="translate(373,431)"/>
<path d="M0 0 C0.99 0.33 1.98 0.66 3 1 C1.02 3.31 -0.96 5.62 -3 8 C-4 5 -4 5 -3.1875 2.875 C-2 1 -2 1 0 0 Z " fill="#F0DCF9" transform="translate(412,289)"/>
<path d="M0 0 C2.08954032 4.17908064 2.16552619 4.80410573 1 9 C0.01 9.33 -0.98 9.66 -2 10 C-1.34 6.7 -0.68 3.4 0 0 Z " fill="#E4D1F4" transform="translate(65,240)"/>
<path d="M0 0 C-0.66 1.65 -1.32 3.3 -2 5 C-2.99 5 -3.98 5 -5 5 C-5.33 4.01 -5.66 3.02 -6 2 C-3 0 -3 0 0 0 Z " fill="#F4EBFA" transform="translate(182,181)"/>
<path d="M0 0 C1.98 1.65 3.96 3.3 6 5 C5.34 5.66 4.68 6.32 4 7 C3.34 7 2.68 7 2 7 C2 6.34 2 5.68 2 5 C1.34 5 0.68 5 0 5 C0 3.35 0 1.7 0 0 Z " fill="#F4EAFD" transform="translate(402,160)"/>
<path d="M0 0 C0 3 0 3 -1 6 C-2.98 6.33 -4.96 6.66 -7 7 C-4.66666667 4.66666667 -2.33333333 2.33333333 0 0 Z " fill="#EEB5FB" transform="translate(151,89)"/>
<path d="M0 0 C2 1 2 1 2 1 Z M-6 1 C-3.125 0.8125 -3.125 0.8125 0 1 C0.66 1.99 1.32 2.98 2 4 C-3.75 4.125 -3.75 4.125 -6 3 C-6 2.34 -6 1.68 -6 1 Z " fill="#F0EFEC" transform="translate(314,337)"/>
<path d="M0 0 C0.66 0.33 1.32 0.66 2 1 C1.34 4.3 0.68 7.6 0 11 C-2 7 -2 7 -1.125 3.25 C-0.75375 2.1775 -0.3825 1.105 0 0 Z " fill="#F2E2FC" transform="translate(279,170)"/>
<path d="M0 0 C1.67542976 0.28604898 3.34385343 0.61781233 5 1 C2.04816899 3.95183101 -0.95511947 4.08663988 -5 5 C-5 4.01 -5 3.02 -5 2 C-4.360625 1.855625 -3.72125 1.71125 -3.0625 1.5625 C-1.02454854 1.18992819 -1.02454854 1.18992819 0 0 Z " fill="#EFDDF5" transform="translate(231,130)"/>
<path d="M0 0 C0.66 0 1.32 0 2 0 C1.67 1.98 1.34 3.96 1 6 C0.01 6.33 -0.98 6.66 -2 7 C-1.125 2.25 -1.125 2.25 0 0 Z " fill="#F2E1FD" transform="translate(85,175)"/>
<path d="M0 0 C0.99 0.99 1.98 1.98 3 3 C1.625 5 1.625 5 0 7 C-0.66 7 -1.32 7 -2 7 C-1.34 4.69 -0.68 2.38 0 0 Z " fill="#F1DDFE" transform="translate(232,282)"/>
<path d="M0 0 C2.91517292 1.07401108 4.77810176 1.77810176 7 4 C5.35 4.33 3.7 4.66 2 5 C1.34 3.35 0.68 1.7 0 0 Z " fill="#EBDFFC" transform="translate(354,266)"/>
<path d="M0 0 C1.98 0.66 3.96 1.32 6 2 C4 4 4 4 1.375 4.125 C0.59125 4.08375 -0.1925 4.0425 -1 4 C-0.67 2.68 -0.34 1.36 0 0 Z " fill="#F8E4FB" transform="translate(280,66)"/>
</svg>
